<?xml version="1.0" encoding="UTF-8" standalone="no"?>
<svg
   xmlns:dc="http://purl.org/dc/elements/1.1/"
   xmlns:cc="http://creativecommons.org/ns#"
   xmlns:rdf="http://www.w3.org/1999/02/22-rdf-syntax-ns#"
   xmlns:svg="http://www.w3.org/2000/svg"
   xmlns="http://www.w3.org/2000/svg"
   xmlns:sodipodi="http://sodipodi.sourceforge.net/DTD/sodipodi-0.dtd"
   xmlns:inkscape="http://www.inkscape.org/namespaces/inkscape"
   version="1.1"
   id="Capa_1"
   x="0px"
   y="0px"
   viewBox="0 0 100 100"
   xml:space="preserve"
   sodipodi:docname="analog-clock.svg"
   width="100"
   height="100"
   inkscape:version="1.0 (262b4497e3, 2020-09-04)"><metadata
   id="metadata1207"><rdf:RDF><cc:Work
       rdf:about=""><dc:format>image/svg+xml</dc:format><dc:type
         rdf:resource="http://purl.org/dc/dcmitype/StillImage" /><dc:title></dc:title></cc:Work></rdf:RDF></metadata><defs
   id="defs1205" /><sodipodi:namedview
   pagecolor="#ffffff"
   bordercolor="#666666"
   borderopacity="1"
   objecttolerance="10"
   gridtolerance="10"
   guidetolerance="10"
   inkscape:pageopacity="0"
   inkscape:pageshadow="2"
   inkscape:window-width="1493"
   inkscape:window-height="754"
   id="namedview1203"
   showgrid="false"
   inkscape:zoom="1.9947368"
   inkscape:cx="190"
   inkscape:cy="75.067309"
   inkscape:window-x="136"
   inkscape:window-y="146"
   inkscape:window-maximized="0"
   inkscape:current-layer="Capa_1" />
<g
   id="g1170"
   style="fill:#d3dae3;fill-opacity:1"
   transform="scale(0.26315789)">
	<path
   d="M 190,0 C 85.233,0 0,85.233 0,190 0,294.767 85.233,380 190,380 294.767,380 380,294.767 380,190 380,85.233 294.767,0 190,0 Z m 0,340 C 107.29,340 40,272.71 40,190 40,107.29 107.29,40 190,40 c 82.71,0 150,67.29 150,150 0,82.71 -67.29,150 -150,150 z"
   id="path1166"
   style="fill:#d3dae3;fill-opacity:1" />
	<path
   d="M 291.993,184.132 H 217.796 C 215.1,179.739 211.393,176.032 207,173.336 V 84.139 c 0,-9.389 -7.611,-17 -17,-17 -9.389,0 -17,7.611 -17,17 v 89.197 c -9.345,5.737 -15.593,16.05 -15.593,27.796 0,17.972 14.622,32.593 32.593,32.593 11.746,0 22.059,-6.248 27.796,-15.593 h 74.197 c 9.389,0 17,-7.611 17,-17 0,-9.389 -7.611,-17 -17,-17 z"
   id="path1168"
   style="fill:#d3dae3;fill-opacity:1" />
</g>
<g
   id="g1172">
</g>
<g
   id="g1174">
</g>
<g
   id="g1176">
</g>
<g
   id="g1178">
</g>
<g
   id="g1180">
</g>
<g
   id="g1182">
</g>
<g
   id="g1184">
</g>
<g
   id="g1186">
</g>
<g
   id="g1188">
</g>
<g
   id="g1190">
</g>
<g
   id="g1192">
</g>
<g
   id="g1194">
</g>
<g
   id="g1196">
</g>
<g
   id="g1198">
</g>
<g
   id="g1200">
</g>
</svg>
